<?xml version="1.0" encoding="UTF-8"?>
<svg width="205px" height="31px" viewBox="0 0 205 31" version="1.1" xmlns="http://www.w3.org/2000/svg" xmlns:xlink="http://www.w3.org/1999/xlink">
    <!-- Generator: Sketch 45.2 (43514) - http://www.bohemiancoding.com/sketch -->
    <title>Logo</title>
    <desc>Created with Sketch.</desc>
    <defs></defs>
    <g id="LOGIN" stroke="none" stroke-width="1" fill="none" fill-rule="evenodd">
        <g id="11.-Blocked-by-Netgear-Firewall" transform="translate(-618.000000, -223.000000)" fill="#6E2585">
            <g id="Install-Bitdefender" transform="translate(419.000000, 187.000000)">
                <g id="Logo" transform="translate(199.000000, 36.000000)">
                    <g id="NETGEAR-LOGO">
                        <path d="M202.562772,9.71587384 C202.562772,3.68658601 198.168492,1.01569589 192.383692,1.01569589 L180.526474,1.01569589 L180.526474,29.2890238 L188.141333,29.2890238 L188.141333,18.4149266 L188.684119,18.4149266 L195.629345,29.2890238 L204.892105,29.2890238 L196.155907,17.7045396 C200.313824,16.9881514 202.562772,13.6226273 202.562772,9.71587384 L202.562772,9.71587384 Z M190.098239,13.6878899 L188.141333,13.6878899 L188.141333,6.64553168 L190.321695,6.64553168 C192.822493,6.64553168 194.942751,7.08924226 194.942751,10.1697114 C194.942751,13.2460547 192.599036,13.6878899 190.098239,13.6878899 L190.098239,13.6878899 Z" id="Fill-3"></path>
                        <path d="M156.720591,1.01569589 L146.479931,29.2890238 L154.353646,29.2890238 L156.026621,24.0852702 L166.199801,24.0852702 L167.873514,29.2890238 L175.742435,29.2890238 L165.509151,1.01569589 L156.720591,1.01569589 L156.720591,1.01569589 Z M157.834187,18.4614355 L161.00683,8.59178205 L161.219224,8.59178205 L164.391867,18.4614355 L157.834187,18.4614355 L157.834187,18.4614355 Z" id="Fill-4"></path>
                        <polyline id="Fill-5" points="123.324874 29.2890238 141.897962 29.2890238 141.897962 23.0703244 130.949321 23.0703244 130.949321 18.1835069 141.436668 18.1835069 141.436668 11.9648076 130.949321 11.9648076 130.949321 7.24452221 141.897962 7.24452221 141.897962 1.01569589 123.324874 1.01569589 123.324874 29.2890238"></polyline>
                        <path d="M101.73549,19.2745924 L107.733791,19.2745924 C107.422574,22.5373466 105.120527,24.1884151 101.810344,24.1884151 C96.796949,24.1884151 94.2954138,19.7224287 94.2954138,15.3419589 C94.2954138,11.0290021 96.4495955,6.42236364 101.473684,6.42236364 C104.54013,6.42236364 106.76216,8.22196072 107.808645,10.9157303 L115.03817,7.99691732 C112.513404,2.7091475 107.845888,0.0738892506 101.822513,0.0738892506 C92.3761198,0.0738892506 86.3770814,6.12343099 86.3770814,15.3018262 C86.3770814,24.1884151 92.5627025,30.2195783 101.773101,30.2195783 C106.680299,30.2195783 110.769631,28.5445052 113.6388,24.6726335 C116.248745,21.1507042 116.550744,17.6325257 116.632604,13.5063549 L101.73549,13.5063549 L101.73549,19.2745924" id="Fill-6"></path>
                        <polyline id="Fill-7" points="60.7075838 7.24414714 68.0790741 7.24414714 68.0790741 29.2890238 75.8193049 29.2890238 75.8193049 7.24414714 83.1970638 7.24414714 83.1970638 1.01532082 60.7075838 1.01532082 60.7075838 7.24414714"></polyline>
                        <polyline id="Fill-8" points="36.937837 29.2890238 55.507606 29.2890238 55.507606 23.0703244 44.5630207 23.0703244 44.5630207 18.1835069 55.0492616 18.1835069 55.0492616 11.9648076 44.5630207 11.9648076 44.5630207 7.24452221 55.507606 7.24452221 55.507606 1.01569589 36.937837 1.01569589 36.937837 29.2890238"></polyline>
                        <polyline id="Fill-9" points="20.3105927 18.3020298 20.2283636 18.3020298 7.61854642 1.01532082 0 1.01532082 0 29.2890238 7.61854642 29.2890238 7.61854642 11.9636824 7.70151302 11.9636824 20.3105927 29.2890238 27.9261892 29.2890238 27.9261892 1.01532082 20.3105927 1.01532082 20.3105927 18.3020298"></polyline>
                    </g>
                </g>
            </g>
        </g>
    </g>
</svg>